<?xml version="1.0" encoding="utf-8"?> <svg version="1.1" id="Layer_1" xmlns="http://www.w3.org/2000/svg" xmlns:xlink="http://www.w3.org/1999/xlink" x="0px" y="0px" viewBox="0 0 397.7 311.7" style="enable-background:new 0 0 397.7 311.7;" xml:space="preserve"> <style type="text/css"> .st0{fill:#FFFFFF;} .st1{fill:#FFFFFF;} .st2{fill:#FFFFFF;} </style> <path class="st0" d="M64.6,237.9c2.4-2.4,5.7-3.8,9.2-3.8h317.4c5.8,0,8.7,7,4.6,11.1l-62.7,62.7c-2.4,2.4-5.7,3.8-9.2,3.8H6.5 c-5.8,0-8.7-7-4.6-11.1L64.6,237.9z"/> <path class="st1" d="M64.6,3.8C67.1,1.4,70.4,0,73.8,0h317.4c5.8,0,8.7,7,4.6,11.1l-62.7,62.7c-2.4,2.4-5.7,3.8-9.2,3.8H6.5 c-5.8,0-8.7-7-4.6-11.1L64.6,3.8z"/> <path class="st2" d="M333.1,120.1c-2.4-2.4-5.7-3.8-9.2-3.8H6.5c-5.8,0-8.7,7-4.6,11.1l62.7,62.7c2.4,2.4,5.7,3.8,9.2,3.8h317.4 c5.8,0,8.7-7,4.6-11.1L333.1,120.1z"/> </svg>
